# xmcd CD database file
#
# Track frame offsets:
#	150
#	20367
#	36105
#	56270
#
# Disc length: 957 seconds
#
# Revision: 0
# Processed by: cddbd v1.5.1PL0 Copyright (c) Steve Scherf et al.
# Submitted via: CDex 1.51
#
DISCID=2503bb04
DTITLE=Ricken's - ランブルフィッシュ
DYEAR=2005
DGENRE=Rock
TTITLE0=ランブルフィッシュ
TTITLE1=黄昏ヒコーキ雲
TTITLE2=ランブルフィッシュ（Instrumental)
TTITLE3=黄昏ヒコーキ雲(Instrumental)
EXTD=YEAR: 2005
EXTT0=
EXTT1=
EXTT2=
EXTT3=
PLAYORDER=
